<?xml version="1.0" encoding="utf-8"?>
<!-- Generator: Adobe Illustrator 16.0.0, SVG Export Plug-In . SVG Version: 6.00 Build 0)  -->
<!DOCTYPE svg PUBLIC "-//W3C//DTD SVG 1.1//EN" "http://www.w3.org/Graphics/SVG/1.1/DTD/svg11.dtd">
<svg version="1.1" id="Layer_1" xmlns="http://www.w3.org/2000/svg" xmlns:xlink="http://www.w3.org/1999/xlink" x="0px" y="0px"
	 width="139.831px" height="36.633px" viewBox="0 0 139.831 36.633" enable-background="new 0 0 139.831 36.633"
	 xml:space="preserve">
<g>
	<defs>
		<rect id="SVGID_1_" width="139.831" height="36.633"/>
	</defs>
	<clipPath id="SVGID_2_">
		<use xlink:href="#SVGID_1_"  overflow="visible"/>
	</clipPath>
	<path clip-path="url(#SVGID_2_)" fill="#FFFFFF" d="M2.408,20.049c1.742,0.436,2.612,0.609,4.349,0.889
		c0.026,0.736,0.039,1.105,0.064,1.842c-0.87-0.193-1.737-0.291-2.61-0.545c0.015,0.408,0.022,0.611,0.036,1.018
		c0.87,0.191,1.305,0.279,2.174,0.436c0.026,0.734,0.039,1.102,0.064,1.834C5.616,25.36,5.181,25.27,4.31,25.069
		c0.04,1.133,0.06,1.697,0.099,2.83c-0.869-0.154-0.872-0.252-1.742-0.428C2.581,24.999,2.494,22.522,2.408,20.049"/>
	<path clip-path="url(#SVGID_2_)" fill="#FFFFFF" d="M7.624,21.038c0.435,0.1,0.868,0.137,1.303,0.219
		c0.081,2.309,0.121,3.465,0.202,5.773c1.301,0.164,2.166,0.223,3.034,0.342c0.026,0.754,0.039,1.129,0.066,1.881
		c-1.734-0.188-2.602-0.313-4.341-0.643C7.8,26.086,7.712,23.561,7.624,21.038"/>
	<path clip-path="url(#SVGID_2_)" fill="#FFFFFF" d="M17.308,26.334c-0.066-1.877-0.098-2.814-0.164-4.693
		c0.863-0.012,1.295-0.023,1.726-0.035c0.067,1.918,0.101,2.879,0.168,4.797c0.031,0.895-0.194,1.676-0.769,2.299
		c-0.571,0.621-1.313,0.92-2.234,0.879c-0.923-0.041-1.607-0.408-2.201-1.066c-0.593-0.656-0.818-1.441-0.849-2.313
		c-0.065-1.865-0.097-2.797-0.162-4.662c0.433,0.045,0.865,0.055,1.729,0.068c0.065,1.854,0.097,2.779,0.162,4.633
		c0.013,0.363,0.064,0.682,0.354,0.961c0.287,0.277,0.54,0.42,0.934,0.436C16.718,27.663,17.335,27.108,17.308,26.334"/>
	<path clip-path="url(#SVGID_2_)" fill="#FFFFFF" d="M20.163,21.536c2.156-0.096,3.017-0.168,5.168-0.371
		c0.028,0.801,0.042,1.201,0.07,2c-1.291,0.115-2.153,0.17-3.446,0.244c0.016,0.441,0.024,0.662,0.039,1.104
		c1.293-0.063,1.724-0.092,2.585-0.164c0.028,0.797,0.042,1.195,0.07,1.992c-0.862,0.064-1.293,0.09-2.586,0.143
		c0.015,0.441,0.023,0.664,0.038,1.104c1.294-0.049,2.156-0.092,3.448-0.184c0.028,0.799,0.042,1.197,0.07,1.996
		c-2.154,0.129-3.017,0.164-5.175,0.188C20.35,26.903,20.257,24.219,20.163,21.536"/>
	<path clip-path="url(#SVGID_2_)" fill="#FFFFFF" d="M26.673,21.02c1.883,1.555,3.053,2.316,4.833,3.852
		c-0.061-1.771-0.092-2.658-0.154-4.43c0.859-0.115,1.289-0.178,2.148-0.303c0.099,2.838,0.198,5.674,0.297,8.512
		c-0.43,0.029-0.296,0.033-0.475,0.053c-1.947-1.551-3.058-2.322-4.84-3.896c0.061,1.746,0.091,2.617,0.152,4.363
		c-0.861,0.068-1.292,0.1-2.154,0.156c-0.096-2.754-0.192-5.508-0.288-8.26C26.623,21.042,26.51,21.04,26.673,21.02"/>
	<path clip-path="url(#SVGID_2_)" fill="#FFFFFF" d="M33.929,20.055c2.577-0.402,4.296-0.646,6.869-1.127
		c0.03,0.848,0.045,1.273,0.074,2.123c-0.858,0.15-1.368,0.229-2.239,0.373c0.123,2.623,0.16,3.936,0.284,6.561
		c-0.938,0.129-1.416,0.193-2.343,0.314c-0.101-2.604-0.253-3.9-0.354-6.504c-0.851,0.135-1.359,0.203-2.219,0.326
		C33.972,21.295,33.958,20.881,33.929,20.055"/>
	<path clip-path="url(#SVGID_2_)" fill="#FFFFFF" d="M45.829,17.967c0.953-0.184,1.432-0.276,2.396-0.465
		c0.721,1.446,1.082,2.17,1.808,3.627c0.636-1.748,0.955-2.626,1.596-4.388c0.087-0.018,0.131-0.026,0.219-0.043
		c0.757,1.496,1.137,2.246,1.9,3.755c0.636-1.735,0.955-2.606,1.596-4.352c1.03-0.203,1.547-0.305,2.589-0.507
		c-1.267,3.376-2.521,6.718-3.761,10.023c-0.192,0.031-0.288,0.047-0.48,0.078c-0.72-1.49-1.078-2.232-1.792-3.709
		c-0.585,1.699-0.876,2.545-1.456,4.232c-0.187,0.029-0.28,0.045-0.466,0.074C48.58,23.491,47.197,20.715,45.829,17.967"/>
	<path clip-path="url(#SVGID_2_)" fill="#FFFFFF" d="M59.14,24.821c-0.109-3.135-0.219-6.268-0.328-9.402
		c0.857-0.186,1.717-0.292,2.574-0.476c0.11,3.163,0.221,6.327,0.331,9.491C60.858,24.583,59.998,24.67,59.14,24.821"/>
	<path clip-path="url(#SVGID_2_)" fill="#FFFFFF" d="M62.243,14.769c3.433-0.615,4.718-0.903,8.153-1.471
		c0.033,0.953,0.05,1.429,0.083,2.382c-0.858,0.168-1.603,0.265-2.696,0.447c0.142,2.938,0.241,4.407,0.385,7.348
		c-1.177,0.164-1.747,0.248-2.908,0.418c-0.114-2.914-0.173-4.369-0.288-7.282c-1.065,0.186-1.791,0.286-2.648,0.467
		C62.291,16.154,62.275,15.692,62.243,14.769"/>
	<path clip-path="url(#SVGID_2_)" fill="#FFFFFF" d="M71.685,13.119c0.858-0.17,1.286-0.254,2.576-0.431
		c0.052,1.506,0.079,2.259,0.131,3.765c1.288-0.207,2.148-0.315,3.868-0.521c-0.053-1.526-0.08-2.29-0.133-3.816
		c0.857-0.152,1.719-0.241,2.576-0.384c0.119,3.396,0.238,6.792,0.356,10.189c-0.86,0.1-1.721,0.17-2.581,0.281
		c-0.053-1.529-0.08-2.295-0.133-3.823c-1.721,0.192-2.581,0.294-3.869,0.489c0.053,1.51,0.078,2.264,0.131,3.771
		c-1.289,0.139-1.72,0.203-2.578,0.336C71.914,19.69,71.8,16.404,71.685,13.119"/>
	<path clip-path="url(#SVGID_2_)" fill="#FFFFFF" d="M88.874,10.752c3.874-0.357,5.596-0.5,9.043-0.702
		c0.037,1.054,0.055,1.579,0.092,2.632c-2.155,0.107-3.448,0.185-5.601,0.351c0.02,0.578,0.029,0.868,0.05,1.446
		c1.723-0.121,2.585-0.175,4.31-0.262c0.036,1.048,0.055,1.572,0.092,2.62c-1.726,0.072-2.588,0.118-4.311,0.225
		c0.057,1.608,0.084,2.414,0.141,4.023c-1.293,0.063-2.156,0.105-3.449,0.188C89.119,17.765,88.996,14.258,88.874,10.752"/>
	<path clip-path="url(#SVGID_2_)" fill="#FFFFFF" d="M99.59,20.846c-0.127-3.613-0.252-7.225-0.379-10.838
		c1.293-0.067,1.725-0.088,3.018-0.134c0.128,3.652,0.256,7.305,0.383,10.957C101.316,20.829,100.885,20.827,99.59,20.846"/>
	<path clip-path="url(#SVGID_2_)" fill="#FFFFFF" d="M104.816,9.796c1.295-0.029,1.727-0.031,3.453-0.052
		c0.118,3.378,0.178,5.067,0.295,8.445c2.592,0.051,3.89,0.097,6.485,0.24c0.038,1.108,0.058,1.661,0.097,2.768
		c-4.326-0.242-6.057-0.32-9.945-0.365C105.074,17.154,104.945,13.476,104.816,9.796"/>
	<path clip-path="url(#SVGID_2_)" fill="#FFFFFF" d="M116.731,9.857c3.021,3.055,4.521,4.63,7.629,7.888
		c2.951-2.7,4.36-4.035,7.399-6.679c0.33,0.04,0.738,0.053,0.74,0.105c0.141,4.019,0.28,8.038,0.42,12.057
		c-1.304-0.268-2.172-0.385-3.906-0.6c-0.062-1.756-0.092-2.633-0.153-4.387c-1.675,1.504-2.698,2.268-4.457,3.797
		c-1.864-1.924-2.851-2.863-4.644-4.716c0.061,1.708,0.091,2.564,0.149,4.271c-1.3-0.139-2.165-0.193-3.464-0.303
		c-0.134-3.821-0.268-7.642-0.4-11.463C116.045,9.849,116.432,9.846,116.731,9.857"/>
	<path clip-path="url(#SVGID_2_)" fill="#FFFFFF" d="M136.953,27.401c0.041,1.182-1.157,1.871-2.783,1.576
		c-16.691-2.711-31.521-3.355-45.559-2.828c-1.2,0.061-2.246-0.695-2.282-1.705c-0.183-5.232-0.365-10.467-0.548-15.701
		c-0.035-1.009,1.002-1.952,2.199-2.093c14.004-1.459,28.701-1.787,45.353-0.177c1.623,0.189,2.935,1.328,2.978,2.51L136.953,27.401
		z M136.29,33.141c0.008,0.236-0.31,0.373-0.636,0.309c-0.942-0.189-1.362-0.281-2.297-0.457c-0.32-0.061-0.537-0.301-0.547-0.533
		c-0.028-0.846-0.043-1.268-0.072-2.111c-0.01-0.234,0.166-0.375,0.486-0.318c0.935,0.168,1.422,0.256,2.364,0.436
		c0.326,0.063,0.618,0.305,0.626,0.541C136.245,31.86,136.26,32.288,136.29,33.141 M127.6,31.588c0.008,0.23-0.279,0.379-0.59,0.332
		c-0.894-0.139-1.384-0.203-2.271-0.33c-0.305-0.043-0.602-0.26-0.61-0.488c-0.028-0.824-0.043-1.234-0.071-2.059
		c-0.009-0.229,0.256-0.381,0.561-0.34c0.886,0.117,1.386,0.178,2.279,0.309c0.31,0.045,0.623,0.266,0.631,0.496
		C127.557,30.34,127.57,30.756,127.6,31.588 M118.923,30.426c0.009,0.225-0.305,0.383-0.598,0.35c-0.847-0.09-1.38-0.129-2.22-0.211
		c-0.289-0.025-0.64-0.225-0.647-0.445c-0.028-0.803-0.042-1.203-0.069-2.008c-0.009-0.221,0.289-0.383,0.578-0.357
		c0.84,0.074,1.377,0.107,2.225,0.191c0.293,0.029,0.652,0.232,0.66,0.455C118.881,29.211,118.895,29.618,118.923,30.426
		 M111.127,29.737c0.007,0.221-0.289,0.385-0.568,0.365c-0.806-0.055-1.179-0.08-1.978-0.125c-0.274-0.016-0.476-0.203-0.483-0.42
		c-0.027-0.783-0.041-1.176-0.068-1.959c-0.008-0.215,0.143-0.379,0.418-0.367c0.799,0.039,1.242,0.059,2.048,0.105
		c0.278,0.016,0.555,0.205,0.563,0.424C111.085,28.551,111.1,28.946,111.127,29.737 M102.91,29.372
		c0.007,0.213-0.117,0.377-0.383,0.369c-0.764-0.02-1.055-0.031-1.814-0.045c-0.261-0.006-0.389-0.182-0.396-0.393
		c-0.026-0.764-0.041-1.146-0.066-1.91c-0.008-0.211,0.15-0.379,0.412-0.377c0.758,0.006,1.031,0.014,1.796,0.029
		c0.265,0.004,0.377,0.186,0.384,0.398C102.869,28.215,102.883,28.6,102.91,29.372 M95.998,29.293
		c0.007,0.207-0.173,0.377-0.425,0.379c-0.73,0.004-1.035,0.006-1.759,0.018c-0.25,0.004-0.398-0.162-0.406-0.367
		c-0.026-0.746-0.039-1.121-0.065-1.867c-0.007-0.207,0.14-0.377,0.39-0.385c0.724-0.016,1.043-0.021,1.772-0.033
		c0.253-0.006,0.42,0.162,0.427,0.369C95.959,28.163,95.973,28.54,95.998,29.293 M88.664,29.463
		c0.007,0.203-0.075,0.371-0.316,0.381c-0.693,0.027-1.09,0.043-1.779,0.076c-0.237,0.01-0.484-0.143-0.491-0.342
		c-0.026-0.73-0.038-1.096-0.063-1.824c-0.008-0.201,0.282-0.379,0.52-0.393c0.689-0.039,0.979-0.055,1.674-0.088
		c0.24-0.012,0.385,0.146,0.393,0.35C88.625,28.358,88.639,28.727,88.664,29.463 M84.176,24.612c0.035,1-0.977,1.879-2.13,1.969
		c-13.04,1.148-24.881,2.912-35.705,4.455c-0.876,0.123-1.682-0.479-1.712-1.342c-0.157-4.48-0.313-8.961-0.47-13.442
		c-0.03-0.863,0.677-1.708,1.55-1.89C56.508,12.1,68.358,9.551,81.367,7.537c1.15-0.167,2.23,0.512,2.266,1.511
		C83.814,14.235,83.995,19.424,84.176,24.612 M82.63,29.786c0.007,0.197-0.251,0.375-0.481,0.389
		c-0.664,0.045-1.008,0.068-1.668,0.115c-0.226,0.018-0.429-0.129-0.436-0.326c-0.025-0.713-0.037-1.07-0.063-1.783
		c-0.006-0.197,0.146-0.371,0.373-0.389c0.66-0.055,1.055-0.082,1.719-0.131c0.23-0.02,0.486,0.127,0.492,0.324
		C82.592,28.706,82.605,29.065,82.63,29.786 M75.738,30.305c0.008,0.195-0.057,0.363-0.277,0.383
		c-0.634,0.059-0.895,0.084-1.523,0.145c-0.217,0.02-0.344-0.121-0.35-0.314c-0.025-0.697-0.037-1.045-0.061-1.742
		c-0.008-0.193,0.162-0.367,0.377-0.391c0.631-0.064,0.838-0.092,1.472-0.154c0.22-0.021,0.295,0.121,0.302,0.316
		C75.703,29.25,75.715,29.602,75.738,30.305 M70.146,30.874c0.006,0.189-0.178,0.363-0.389,0.387
		c-0.607,0.064-0.84,0.094-1.444,0.162c-0.207,0.021-0.311-0.113-0.318-0.303c-0.023-0.684-0.035-1.023-0.059-1.707
		c-0.007-0.189,0.077-0.359,0.284-0.385c0.603-0.07,0.886-0.105,1.493-0.178c0.21-0.023,0.366,0.111,0.373,0.301
		C70.11,29.84,70.122,30.184,70.146,30.874 M64.125,31.561c0.006,0.186-0.146,0.355-0.347,0.381c-0.581,0.07-0.863,0.105-1.44,0.176
		c-0.199,0.025-0.357-0.105-0.363-0.289c-0.023-0.668-0.035-1.002-0.058-1.672c-0.007-0.184,0.144-0.354,0.342-0.381
		c0.577-0.076,0.858-0.113,1.439-0.189c0.201-0.025,0.361,0.104,0.368,0.291C64.089,30.551,64.101,30.887,64.125,31.561
		 M58.967,32.229c0.006,0.184-0.243,0.355-0.436,0.379c-0.558,0.072-0.819,0.107-1.374,0.18c-0.191,0.025-0.334-0.102-0.34-0.283
		c-0.023-0.654-0.034-0.982-0.057-1.637c-0.006-0.182,0.078-0.348,0.269-0.373c0.554-0.078,0.896-0.117,1.454-0.195
		c0.193-0.027,0.419,0.098,0.426,0.281C58.932,31.239,58.943,31.569,58.967,32.229 M53.809,32.911
		c0.006,0.178-0.234,0.346-0.42,0.371c-0.536,0.07-0.829,0.107-1.362,0.178c-0.183,0.023-0.362-0.1-0.368-0.277
		c-0.022-0.643-0.033-0.963-0.056-1.605c-0.006-0.178,0.115-0.342,0.299-0.367c0.532-0.074,0.883-0.115,1.419-0.191
		c0.186-0.025,0.425,0.094,0.431,0.273C53.775,31.938,53.786,32.262,53.809,32.911 M48.22,33.622
		c0.006,0.176-0.073,0.334-0.251,0.357c-0.515,0.066-0.699,0.098-1.21,0.162c-0.176,0.023-0.251-0.102-0.258-0.277
		c-0.022-0.629-0.032-0.943-0.054-1.572c-0.007-0.174,0.089-0.332,0.265-0.357c0.512-0.07,0.686-0.102,1.201-0.172
		c0.178-0.025,0.246,0.1,0.252,0.275C48.187,32.67,48.198,32.987,48.22,33.622 M42.764,13.389c0.006,0.172-0.081,0.338-0.252,0.373
		c-0.495,0.103-0.697,0.152-1.189,0.252c-0.169,0.034-0.267-0.078-0.273-0.249c-0.022-0.617-0.033-0.926-0.054-1.543
		c-0.006-0.171,0.106-0.337,0.275-0.373c0.491-0.104,0.681-0.155,1.175-0.262c0.171-0.036,0.258,0.075,0.264,0.247
		C42.731,12.456,42.742,12.767,42.764,13.389 M43.492,34.229c0.006,0.172-0.082,0.326-0.254,0.348
		c-0.495,0.061-0.699,0.088-1.192,0.146c-0.169,0.021-0.268-0.102-0.274-0.273c-0.021-0.617-0.032-0.926-0.054-1.545
		c-0.006-0.17,0.107-0.324,0.276-0.346c0.493-0.063,0.683-0.092,1.179-0.158c0.171-0.021,0.258,0.102,0.264,0.273
		C43.459,33.295,43.47,33.606,43.492,34.229 M42.911,29.956c0.03,0.855-0.686,1.645-1.533,1.756
		c-14.479,1.785-27.122,2.27-38.716-0.879c-0.608-0.186-1.205-0.926-1.23-1.641c-0.13-3.709-0.259-7.418-0.389-11.125
		c-0.025-0.715,0.507-1.165,1.113-1.019c11.567,2.386,24.175,1.07,38.62-1.678c0.845-0.166,1.639,0.387,1.669,1.243
		C42.6,21.061,42.755,25.508,42.911,29.956 M38.762,34.797c0.006,0.168-0.153,0.32-0.318,0.338
		c-0.476,0.051-0.669,0.074-1.142,0.123c-0.164,0.016-0.255-0.107-0.261-0.275c-0.021-0.605-0.032-0.906-0.053-1.514
		c-0.006-0.166,0.062-0.314,0.225-0.332c0.474-0.053,0.71-0.08,1.187-0.135c0.165-0.02,0.303,0.102,0.309,0.27
		C38.73,33.881,38.74,34.186,38.762,34.797 M34.459,35.235c0.006,0.166-0.2,0.314-0.36,0.328c-0.459,0.041-0.649,0.059-1.106,0.096
		c-0.158,0.014-0.25-0.111-0.256-0.275c-0.021-0.594-0.031-0.891-0.052-1.486c-0.006-0.164,0.037-0.305,0.194-0.318
		c0.457-0.043,0.728-0.064,1.188-0.109c0.159-0.016,0.334,0.104,0.34,0.27C34.428,34.338,34.438,34.637,34.459,35.235
		 M29.722,35.594c0.006,0.162-0.094,0.301-0.247,0.311c-0.443,0.025-0.708,0.039-1.148,0.063c-0.152,0.008-0.323-0.115-0.329-0.275
		c-0.02-0.584-0.03-0.875-0.051-1.459c-0.005-0.16,0.167-0.301,0.319-0.309c0.44-0.027,0.667-0.041,1.11-0.072
		c0.154-0.012,0.289,0.111,0.295,0.273C29.691,34.713,29.701,35.006,29.722,35.594 M25.842,35.784
		c0.006,0.16-0.199,0.297-0.348,0.301c-0.428,0.012-0.659,0.016-1.085,0.023c-0.146,0.004-0.287-0.123-0.292-0.279
		c-0.02-0.574-0.03-0.861-0.05-1.434c-0.006-0.158,0.081-0.289,0.228-0.293c0.425-0.012,0.715-0.021,1.143-0.037
		c0.148-0.006,0.348,0.117,0.354,0.275C25.812,34.918,25.822,35.208,25.842,35.784 M21.526,35.838
		c0.006,0.156-0.149,0.283-0.292,0.281c-0.413-0.006-0.689-0.008-1.1-0.018c-0.142-0.002-0.33-0.129-0.336-0.285
		c-0.019-0.563-0.029-0.844-0.049-1.406c-0.005-0.156,0.153-0.281,0.294-0.279c0.411,0.006,0.685,0.006,1.098,0.008
		c0.143,0.002,0.33,0.125,0.336,0.283L21.526,35.838z M17.636,35.721c0.005,0.154-0.114,0.273-0.253,0.266
		c-0.4-0.023-0.71-0.031-1.108-0.061c-0.138-0.01-0.364-0.139-0.369-0.291c-0.019-0.553-0.029-0.83-0.048-1.383
		c-0.006-0.154,0.206-0.273,0.343-0.266c0.398,0.025,0.662,0.035,1.062,0.055c0.138,0.006,0.319,0.135,0.325,0.289
		C17.607,34.887,17.617,35.165,17.636,35.721 M13.739,35.401c0.005,0.152-0.137,0.264-0.271,0.248
		c-0.387-0.045-0.704-0.063-1.089-0.111c-0.132-0.02-0.368-0.15-0.373-0.301c-0.019-0.543-0.029-0.814-0.048-1.357
		c-0.005-0.15,0.203-0.262,0.336-0.246c0.385,0.045,0.668,0.063,1.055,0.104c0.134,0.016,0.337,0.146,0.342,0.297
		C13.71,34.581,13.72,34.854,13.739,35.401 M10.267,34.903c0.005,0.15-0.19,0.256-0.32,0.234c-0.375-0.066-0.681-0.096-1.055-0.166
		c-0.128-0.025-0.355-0.16-0.361-0.309c-0.018-0.535-0.028-0.803-0.046-1.336c-0.005-0.148,0.166-0.252,0.295-0.229
		c0.373,0.068,0.69,0.096,1.065,0.158c0.13,0.02,0.37,0.154,0.375,0.303C10.239,34.096,10.248,34.366,10.267,34.903 M6.355,34.163
		c0.005,0.146-0.084,0.24-0.21,0.211c-0.363-0.09-0.523-0.137-0.885-0.23c-0.124-0.033-0.207-0.18-0.212-0.324
		c-0.019-0.525-0.028-0.789-0.046-1.314C4.997,32.36,5.076,32.268,5.2,32.299c0.362,0.092,0.526,0.137,0.889,0.223
		c0.126,0.029,0.215,0.172,0.22,0.318C6.327,33.37,6.337,33.633,6.355,34.163 M2.869,33.247c0.005,0.143-0.023,0.227-0.145,0.188
		c-0.353-0.111-0.558-0.168-0.909-0.287c-0.121-0.041-0.252-0.189-0.257-0.332C1.54,32.297,1.531,32.04,1.513,31.52
		c-0.005-0.143,0.151-0.227,0.272-0.188c0.351,0.115,0.491,0.174,0.844,0.281c0.122,0.039,0.189,0.186,0.194,0.33
		C2.841,32.465,2.85,32.725,2.869,33.247 M2.26,15.801c0.005,0.144-0.023,0.235-0.145,0.207c-0.352-0.083-0.556-0.125-0.906-0.215
		c-0.121-0.031-0.251-0.171-0.256-0.314c-0.018-0.517-0.027-0.775-0.045-1.294c-0.005-0.143,0.15-0.236,0.271-0.206
		c0.35,0.087,0.49,0.129,0.841,0.209c0.122,0.027,0.189,0.167,0.194,0.312C2.232,15.02,2.241,15.279,2.26,15.801 M5.736,16.438
		c0.005,0.146-0.084,0.248-0.209,0.229c-0.363-0.06-0.522-0.09-0.882-0.155c-0.124-0.022-0.207-0.16-0.212-0.305
		c-0.019-0.525-0.028-0.788-0.046-1.314c-0.005-0.145,0.073-0.245,0.198-0.223c0.36,0.062,0.524,0.091,0.886,0.146
		c0.125,0.02,0.214,0.153,0.219,0.299C5.708,15.645,5.718,15.909,5.736,16.438 M9.637,16.871c0.005,0.148-0.19,0.264-0.319,0.252
		c-0.374-0.033-0.68-0.048-1.052-0.088c-0.128-0.014-0.355-0.142-0.36-0.288c-0.019-0.535-0.028-0.803-0.047-1.337
		c-0.005-0.148,0.166-0.26,0.294-0.247c0.372,0.037,0.689,0.049,1.063,0.08c0.13,0.01,0.369,0.134,0.374,0.282
		C9.609,16.063,9.619,16.333,9.637,16.871 M13.099,17.069c0.005,0.151-0.137,0.272-0.271,0.269
		c-0.385-0.012-0.702-0.016-1.085-0.032c-0.133-0.006-0.368-0.129-0.373-0.279c-0.019-0.544-0.029-0.815-0.047-1.358
		c-0.006-0.15,0.202-0.271,0.334-0.267c0.384,0.015,0.667,0.017,1.052,0.025c0.134,0.003,0.337,0.124,0.342,0.275
		C13.07,16.249,13.079,16.522,13.099,17.069 M16.984,17.061c0.006,0.154-0.114,0.282-0.252,0.286
		c-0.399,0.01-0.709,0.017-1.105,0.022c-0.137,0.002-0.363-0.117-0.368-0.271c-0.02-0.554-0.029-0.83-0.049-1.383
		c-0.005-0.153,0.206-0.283,0.343-0.286c0.397-0.008,0.66-0.015,1.059-0.029c0.138-0.005,0.318,0.114,0.324,0.268
		C16.955,16.225,16.965,16.504,16.984,17.061 M20.863,16.856c0.006,0.156-0.149,0.293-0.291,0.304
		c-0.412,0.028-0.687,0.045-1.097,0.069c-0.141,0.008-0.329-0.108-0.335-0.265c-0.02-0.563-0.029-0.844-0.049-1.407
		c-0.005-0.155,0.152-0.29,0.293-0.3c0.41-0.027,0.683-0.045,1.095-0.078c0.142-0.011,0.329,0.104,0.335,0.26
		C20.834,16.007,20.844,16.29,20.863,16.856 M25.167,16.448c0.006,0.159-0.199,0.306-0.347,0.322
		c-0.427,0.048-0.657,0.071-1.082,0.115c-0.146,0.015-0.286-0.101-0.292-0.259c-0.02-0.573-0.03-0.86-0.05-1.434
		c-0.005-0.157,0.081-0.299,0.227-0.314c0.425-0.047,0.714-0.075,1.14-0.126c0.148-0.019,0.348,0.094,0.354,0.253
		C25.137,15.583,25.147,15.872,25.167,16.448 M29.035,15.916c0.005,0.162-0.093,0.311-0.246,0.333
		c-0.442,0.063-0.706,0.096-1.145,0.155c-0.152,0.021-0.323-0.092-0.328-0.253c-0.021-0.583-0.031-0.875-0.051-1.458
		c-0.006-0.16,0.166-0.311,0.317-0.333c0.44-0.063,0.666-0.097,1.108-0.165c0.153-0.022,0.288,0.09,0.293,0.251
		C29.004,15.034,29.014,15.328,29.035,15.916 M33.759,15.176c0.005,0.166-0.201,0.325-0.359,0.352
		c-0.459,0.079-0.648,0.117-1.103,0.192c-0.157,0.026-0.25-0.087-0.255-0.252c-0.021-0.594-0.032-0.891-0.052-1.486
		c-0.006-0.164,0.036-0.315,0.193-0.344c0.456-0.079,0.726-0.121,1.184-0.204c0.159-0.029,0.334,0.08,0.339,0.245
		C33.727,14.277,33.738,14.578,33.759,15.176 M38.048,14.367c0.006,0.168-0.152,0.33-0.316,0.362
		c-0.475,0.091-0.667,0.134-1.139,0.224c-0.163,0.029-0.254-0.082-0.26-0.25c-0.021-0.605-0.032-0.908-0.053-1.514
		c-0.006-0.167,0.061-0.326,0.224-0.357c0.472-0.094,0.708-0.141,1.183-0.235c0.165-0.033,0.302,0.076,0.308,0.245
		C38.016,13.452,38.027,13.757,38.048,14.367 M47.479,12.381c0.006,0.175-0.073,0.346-0.251,0.384
		c-0.513,0.11-0.696,0.162-1.206,0.271c-0.176,0.036-0.251-0.076-0.257-0.25c-0.022-0.63-0.033-0.943-0.055-1.573
		c-0.006-0.173,0.09-0.344,0.265-0.383c0.51-0.113,0.684-0.167,1.197-0.282c0.178-0.039,0.245,0.073,0.251,0.248
		C47.445,11.43,47.456,11.747,47.479,12.381 M53.051,11.226c0.007,0.179-0.233,0.359-0.418,0.399
		c-0.535,0.115-0.826,0.175-1.358,0.29c-0.183,0.04-0.361-0.071-0.367-0.248c-0.023-0.643-0.034-0.964-0.056-1.606
		c-0.006-0.177,0.114-0.354,0.297-0.395c0.531-0.12,0.881-0.184,1.416-0.305c0.185-0.041,0.424,0.067,0.43,0.246
		C53.017,10.255,53.029,10.578,53.051,11.226 M58.194,10.111c0.007,0.183-0.242,0.367-0.434,0.408
		c-0.557,0.119-0.817,0.178-1.37,0.297c-0.19,0.041-0.333-0.072-0.339-0.254c-0.023-0.654-0.034-0.982-0.057-1.638
		c-0.007-0.181,0.077-0.359,0.267-0.402c0.553-0.124,0.895-0.188,1.451-0.312c0.192-0.043,0.418,0.067,0.424,0.25
		C58.16,9.122,58.171,9.452,58.194,10.111 M63.337,8.992c0.006,0.186-0.146,0.369-0.346,0.41c-0.58,0.119-0.86,0.18-1.436,0.3
		c-0.198,0.041-0.355-0.075-0.362-0.261c-0.023-0.668-0.035-1.002-0.058-1.671c-0.007-0.184,0.143-0.368,0.341-0.411
		c0.576-0.125,0.856-0.187,1.435-0.312c0.201-0.043,0.36,0.074,0.367,0.26C63.301,7.98,63.313,8.317,63.337,8.992 M69.34,7.803
		c0.007,0.19-0.177,0.377-0.387,0.417c-0.606,0.117-0.838,0.173-1.44,0.29c-0.207,0.041-0.31-0.081-0.317-0.271
		c-0.023-0.683-0.035-1.024-0.059-1.708c-0.007-0.188,0.076-0.372,0.283-0.414c0.602-0.123,0.883-0.184,1.488-0.306
		c0.21-0.042,0.365,0.079,0.372,0.27C69.304,6.77,69.316,7.113,69.34,7.803 M74.917,6.743c0.006,0.194-0.058,0.379-0.276,0.417
		c-0.633,0.109-0.893,0.163-1.521,0.275c-0.216,0.039-0.341-0.088-0.349-0.28c-0.023-0.697-0.037-1.046-0.061-1.743
		c-0.007-0.192,0.161-0.382,0.377-0.423c0.628-0.117,0.835-0.173,1.467-0.287c0.219-0.04,0.293,0.089,0.301,0.282
		C74.88,5.688,74.893,6.04,74.917,6.743 M81.788,5.676c0.007,0.198-0.25,0.39-0.479,0.424c-0.662,0.101-1.006,0.151-1.662,0.254
		c-0.228,0.035-0.429-0.095-0.436-0.292c-0.025-0.713-0.038-1.069-0.063-1.784c-0.008-0.196,0.146-0.386,0.371-0.423
		c0.657-0.108,1.051-0.165,1.713-0.27c0.229-0.037,0.485,0.093,0.492,0.291C81.75,4.596,81.764,4.956,81.788,5.676 M87.803,4.815
		c0.008,0.203-0.074,0.388-0.314,0.417c-0.692,0.086-1.086,0.132-1.774,0.223c-0.237,0.03-0.483-0.105-0.489-0.307
		c-0.026-0.729-0.039-1.094-0.064-1.823c-0.008-0.201,0.281-0.396,0.52-0.429c0.687-0.096,0.975-0.142,1.668-0.232
		c0.239-0.032,0.385,0.108,0.391,0.312C87.764,3.712,87.777,4.08,87.803,4.815 M95.117,4.046c0.007,0.208-0.174,0.394-0.424,0.417
		c-0.729,0.065-1.032,0.099-1.754,0.171c-0.248,0.025-0.397-0.124-0.404-0.33c-0.026-0.747-0.039-1.12-0.064-1.867
		c-0.009-0.206,0.139-0.394,0.387-0.421c0.722-0.078,1.041-0.115,1.768-0.188c0.252-0.025,0.419,0.125,0.426,0.334
		C95.077,2.915,95.09,3.292,95.117,4.046 M102.008,3.535c0.008,0.213-0.117,0.395-0.381,0.409c-0.762,0.043-1.053,0.064-1.809,0.114
		c-0.262,0.018-0.389-0.142-0.396-0.353c-0.026-0.765-0.04-1.146-0.067-1.911c-0.006-0.211,0.15-0.396,0.41-0.416
		c0.758-0.058,1.028-0.08,1.791-0.13c0.264-0.019,0.377,0.145,0.383,0.357C101.967,2.378,101.98,2.764,102.008,3.535 M110.201,3.242
		c0.008,0.218-0.288,0.4-0.566,0.405c-0.803,0.014-1.175,0.021-1.972,0.043c-0.274,0.007-0.474-0.162-0.481-0.379
		c-0.027-0.783-0.041-1.175-0.068-1.958c-0.008-0.216,0.142-0.397,0.416-0.408c0.796-0.028,1.238-0.043,2.041-0.063
		c0.279-0.007,0.555,0.163,0.562,0.382C110.16,2.055,110.174,2.451,110.201,3.242 M117.975,3.28
		c0.008,0.225-0.304,0.401-0.597,0.395c-0.844-0.021-1.375-0.024-2.213-0.035c-0.288-0.004-0.638-0.182-0.646-0.403
		c-0.028-0.803-0.043-1.203-0.07-2.006c-0.008-0.222,0.289-0.403,0.578-0.402c0.836,0.004,1.373,0.004,2.217,0.017
		c0.292,0.004,0.652,0.186,0.66,0.41C117.934,2.064,117.947,2.47,117.975,3.28 M126.626,3.713c0.008,0.229-0.278,0.398-0.588,0.377
		c-0.892-0.063-1.38-0.09-2.265-0.144c-0.303-0.017-0.602-0.214-0.609-0.441c-0.027-0.823-0.043-1.235-0.071-2.06
		c-0.008-0.228,0.255-0.4,0.558-0.386c0.885,0.045,1.384,0.068,2.274,0.123c0.308,0.021,0.62,0.22,0.628,0.45
		C126.583,2.465,126.598,2.881,126.626,3.713 M135.291,4.544c0.008,0.235-0.309,0.396-0.634,0.358
		c-0.94-0.11-1.358-0.165-2.289-0.263c-0.321-0.033-0.537-0.251-0.545-0.484c-0.03-0.845-0.044-1.267-0.074-2.111
		c-0.008-0.234,0.166-0.396,0.485-0.365c0.932,0.09,1.418,0.137,2.357,0.24c0.326,0.035,0.616,0.256,0.624,0.491
		C135.246,3.264,135.262,3.69,135.291,4.544 M0,12.925c0.24,6.871,0.48,13.742,0.72,20.615c32.328,10.742,75.18-11,139.111,2.094
		c-0.401-11.5-0.804-23.001-1.205-34.501C74.916-5.636,32.217,20.475,0,12.925"/>
</g>
</svg>
